# xmcd
#
# Track frame offsets:
#	150
#	23575
#	45125
#	68900
#	87837
#	110105
#	131625
#	149765
#	175967
#	197987
#
# Disc length: 2943 seconds
#
# Revision: 1
# Processed by: cddbd v1.5.1PL0 Copyright (c) Steve Scherf et al.
# Submitted via: CDex 1.50Beta5
#
DISCID=8e0b7d0a
DTITLE=楠瀬誠志郎 - ビーナスと恋泥棒
DYEAR=1994
DGENRE=
TTITLE0=日曜の朝、僕はパンをこがす。
TTITLE1=恋人でいたいね
TTITLE2=恋愛が愛情に変わっても
TTITLE3=虹は消えても
TTITLE4=しあわせ まだかい
TTITLE5=キッチン・カーニバル
TTITLE6=君は僕の中のどこにでもいる
TTITLE7=マッチ箱の中の永遠
TTITLE8=ビーナス
TTITLE9=生きる歓び
EXTD=
EXTT0=
EXTT1=
EXTT2=
EXTT3=
EXTT4=
EXTT5=
EXTT6=
EXTT7=
EXTT8=
EXTT9=
PLAYORDER=
